<?xml version="1.0" encoding="UTF-8" standalone="no"?>
<!-- Created with Inkscape (http://www.inkscape.org/) -->

<svg
   xmlns:dc="http://purl.org/dc/elements/1.1/"
   xmlns:cc="http://creativecommons.org/ns#"
   xmlns:rdf="http://www.w3.org/1999/02/22-rdf-syntax-ns#"
   xmlns:svg="http://www.w3.org/2000/svg"
   xmlns="http://www.w3.org/2000/svg"
   xmlns:sodipodi="http://sodipodi.sourceforge.net/DTD/sodipodi-0.dtd"
   xmlns:inkscape="http://www.inkscape.org/namespaces/inkscape"
   id="svg2"
   version="1.1"
   inkscape:version="0.91 r13725"
   xml:space="preserve"
   width="498.37592"
   height="116.72124"
   viewBox="0 0 498.37592 116.72124"
   sodipodi:docname="logo-krzywe-final.svg"><metadata
     id="metadata8"><rdf:RDF><cc:Work
         rdf:about=""><dc:format>image/svg+xml</dc:format><dc:type
           rdf:resource="http://purl.org/dc/dcmitype/StillImage" /><dc:title></dc:title></cc:Work></rdf:RDF></metadata><defs
     id="defs6"><clipPath
       clipPathUnits="userSpaceOnUse"
       id="clipPath16"><path
         d="M 0,560 960,560 960,0 0,0 0,560 Z"
         id="path18"
         inkscape:connector-curvature="0" /></clipPath></defs><sodipodi:namedview
     pagecolor="#ffffff"
     bordercolor="#666666"
     borderopacity="1"
     objecttolerance="10"
     gridtolerance="10"
     guidetolerance="10"
     inkscape:pageopacity="0"
     inkscape:pageshadow="2"
     inkscape:window-width="1855"
     inkscape:window-height="1056"
     id="namedview4"
     showgrid="false"
     inkscape:zoom="0.30333333"
     inkscape:cx="246.73625"
     inkscape:cy="36.250375"
     inkscape:window-x="65"
     inkscape:window-y="24"
     inkscape:window-maximized="1"
     inkscape:current-layer="g10"
     fit-margin-top="0"
     fit-margin-left="0"
     fit-margin-right="0"
     fit-margin-bottom="0" /><g
     id="g10"
     inkscape:groupmode="layer"
     inkscape:label="logo-krzywe"
     transform="matrix(1.25,0,0,-1.25,-353.26375,430.47087)"><g
       id="g12"><g
         id="g14"
         clip-path="url(#clipPath16)"><g
           id="g20"
           transform="translate(654.7813,298.7197)"><path
             d="M 0,0 C -2.801,0.172 -5.385,0.331 -8.543,0.525 -2.965,14.5 2.436,28.031 8.396,42.963 14.219,28.419 19.573,15.041 25.108,1.213 21.921,0.894 19.506,0.653 16.499,0.352 l 0,-47.072 -38.643,0 c -1.012,4.391 -0.196,8.784 -0.497,13.583 L 0,-33.137 0,0 Z"
             style="fill:#92c55f;fill-opacity:1;fill-rule:evenodd;stroke:none"
             id="path22"
             inkscape:connector-curvature="0" /></g><g
           id="g24"
           transform="translate(654.7813,298.7197)"><path
             d="M 0,0 C -2.801,0.172 -5.385,0.331 -8.543,0.525 -2.965,14.5 2.436,28.031 8.396,42.963 14.219,28.419 19.573,15.041 25.108,1.213 21.921,0.894 19.506,0.653 16.499,0.352 l 0,-47.072 -38.643,0 c -1.012,4.391 -0.196,8.784 -0.497,13.583 L 0,-33.137 0,0 Z"
             style="fill:none;stroke:#000000;stroke-width:2;stroke-linecap:butt;stroke-linejoin:miter;stroke-miterlimit:10;stroke-dasharray:none;stroke-opacity:1"
             id="path26"
             inkscape:connector-curvature="0" /></g><g
           id="g28"
           transform="translate(295.377,319.02)"><path
             d="m 0,0 0,-51.315 45.648,0 0,-12.705 -56.914,0 0,64.02 L 0,0 Z"
             style="fill:#ffffff;fill-opacity:1;fill-rule:nonzero;stroke:none"
             id="path30"
             inkscape:connector-curvature="0" /></g><g
           id="g32"
           transform="translate(295.377,319.02)"><path
             d="m 0,0 0,-51.315 45.648,0 0,-12.705 -56.914,0 0,64.02 L 0,0 Z"
             style="fill:none;stroke:#000000;stroke-width:3;stroke-linecap:butt;stroke-linejoin:miter;stroke-miterlimit:10;stroke-dasharray:none;stroke-opacity:1"
             id="path34"
             inkscape:connector-curvature="0" /></g><path
           d="m 397.939,319.02 11.412,0 0,-38.445 -11.412,0 0,38.445 z m -11.412,-38.445 11.412,0 0,-12.87 -11.412,0 0,12.87 z m -11.412,-12.87 11.412,0 0,-12.705 -11.412,0 0,12.705 z m -11.412,12.87 11.412,0 0,-12.87 -11.412,0 0,12.87 z m -11.266,38.445 11.266,0 0,-38.445 -11.266,0 0,38.445 z"
           style="fill:#ffffff;fill-opacity:1;fill-rule:nonzero;stroke:#000000;stroke-width:3;stroke-linecap:butt;stroke-linejoin:miter;stroke-miterlimit:10;stroke-dasharray:none;stroke-opacity:1"
           id="path36"
           inkscape:connector-curvature="0" /><g
           id="g38"
           transform="translate(432.0283,319.02)"><path
             d="m 0,0 0,-51.315 45.648,0 0,-12.705 -56.914,0 0,64.02 L 0,0 Z"
             style="fill:#ffffff;fill-opacity:1;fill-rule:nonzero;stroke:none"
             id="path40"
             inkscape:connector-curvature="0" /></g><g
           id="g42"
           transform="translate(432.0283,319.02)"><path
             d="m 0,0 0,-51.315 45.648,0 0,-12.705 -56.914,0 0,64.02 L 0,0 Z"
             style="fill:none;stroke:#000000;stroke-width:3;stroke-linecap:butt;stroke-linejoin:miter;stroke-miterlimit:10;stroke-dasharray:none;stroke-opacity:1"
             id="path44"
             inkscape:connector-curvature="0" /></g><g
           id="g46"
           transform="translate(550.3916,268.2637)"><path
             d="m 0,0 0,51.315 11.412,0 0,-64.02 -56.914,0 0,64.02 11.412,0 L -34.09,0 0,0 Z"
             style="fill:#ffffff;fill-opacity:1;fill-rule:nonzero;stroke:none"
             id="path48"
             inkscape:connector-curvature="0" /></g><g
           id="g50"
           transform="translate(550.3916,268.2637)"><path
             d="m 0,0 0,51.315 11.412,0 0,-64.02 -56.914,0 0,64.02 11.412,0 L -34.09,0 0,0 Z"
             style="fill:none;stroke:#000000;stroke-width:3;stroke-linecap:butt;stroke-linejoin:miter;stroke-miterlimit:10;stroke-dasharray:none;stroke-opacity:1"
             id="path52"
             inkscape:connector-curvature="0" /></g><g
           id="g54"
           transform="translate(618.7168,294.0034)"><path
             d="m 0,0 0,12.87 11.412,0 0,-25.74 -45.502,0 0,-25.575 -11.412,0 0,64.02 45.502,0 0,-12.705 -34.09,0 L -34.09,0 0,0 Z"
             style="fill:#ffffff;fill-opacity:1;fill-rule:nonzero;stroke:none"
             id="path56"
             inkscape:connector-curvature="0" /></g><g
           id="g58"
           transform="translate(618.7168,294.0034)"><path
             d="m 0,0 0,12.87 11.412,0 0,-25.74 -45.502,0 0,-25.575 -11.412,0 0,64.02 45.502,0 0,-12.705 -34.09,0 L -34.09,0 0,0 Z"
             style="fill:none;stroke:#000000;stroke-width:3;stroke-linecap:butt;stroke-linejoin:miter;stroke-miterlimit:10;stroke-dasharray:none;stroke-opacity:1"
             id="path60"
             inkscape:connector-curvature="0" /></g></g></g></g></svg>